<svg width="53" height="59" viewBox="0 0 53 59" version="1.1" xmlns="http://www.w3.org/2000/svg" xmlns:xlink="http://www.w3.org/1999/xlink" xmlns:figma="http://www.figma.com/figma/ns">
<title>dome</title>
<desc>Created using Figma</desc>
<g id="Canvas" transform="translate(35 -732)" figma:type="canvas">
<g id="dome" figma:type="frame">
<g id="Group" figma:type="frame">
<g id="Group" figma:type="frame">
<g id="Vector" figma:type="vector">
<use xlink:href="#path0_fill" transform="translate(-35 732)" fill="#6FCF97"/>
<mask id="mask0_outline_ins">
<use xlink:href="#path0_fill" fill="white" transform="translate(-35 732)"/>
</mask>
<g mask="url(#mask0_outline_ins)">
<use xlink:href="#path1_stroke_2x" transform="translate(-35 732)"/>
</g>
</g>
</g>
</g>
</g>
</g>
<defs>
<path id="path0_fill" d="M 52.1017 20.65C 52.5979 20.65 53 20.2097 53 19.6667L 53 14.75C 53 14.2069 52.5978 13.7667 52.1017 13.7667L 49.3565 13.7667C 48.9923 10.0983 46.5941 6.7177 42.5081 4.16169C 38.2176 1.47788 32.5324 0 26.5 0C 20.4676 0 14.7823 1.47788 10.4919 4.16169C 6.40591 6.7177 4.00764 10.0983 3.64351 13.7667L 0.898271 13.7667C 0.402132 13.7667 2.08819e-08 14.207 2.08819e-08 14.75L 2.08819e-08 19.6667C 2.08819e-08 20.2098 0.402238 20.65 0.898271 20.65L 3.59319 20.65L 3.59319 52.1167L 0.898271 52.1167C 0.402132 52.1167 2.08819e-08 52.557 2.08819e-08 53.1L 2.08819e-08 58.0167C 2.08819e-08 58.5598 0.402238 59 0.898271 59L 52.1017 59C 52.5979 59 53 58.5597 53 58.0167L 53 53.1C 53 52.5569 52.5978 52.1167 52.1017 52.1167L 49.4068 52.1167L 49.4068 20.65L 52.1017 20.65ZM 11.3834 5.86923C 15.4067 3.35263 20.7751 1.96671 26.5 1.96671C 32.2249 1.96671 37.5933 3.35263 41.6166 5.86935C 45.0966 8.04601 47.163 10.8203 47.5413 13.7667L 5.45868 13.7667C 5.83713 10.8203 7.90338 8.04589 11.3834 5.86923ZM 51.2035 54.0833L 51.2035 57.0333L 1.79654 57.0333L 1.79654 54.0833L 4.49146 54.0833L 8.98303 54.0833L 14.3729 54.0833L 18.8644 54.0833L 24.2543 54.0833L 28.7458 54.0833L 34.1357 54.0833L 38.6271 54.0833L 44.017 54.0833L 48.5085 54.0833L 51.2035 54.0833ZM 5.38984 52.1167L 5.38984 20.65L 8.08476 20.65L 8.08476 52.1167L 5.38984 52.1167ZM 9.8813 52.1167L 9.8813 20.65L 13.4745 20.65L 13.4745 52.1167L 9.8813 52.1167ZM 15.2711 52.1167L 15.2711 20.65L 17.9661 20.65L 17.9661 52.1167L 15.2711 52.1167ZM 19.7627 52.1167L 19.7627 20.65L 23.3559 20.65L 23.3559 52.1167L 19.7627 52.1167ZM 25.1525 52.1167L 25.1525 20.65L 27.8475 20.65L 27.8475 52.1167L 25.1525 52.1167ZM 29.6441 52.1167L 29.6441 20.65L 33.2373 20.65L 33.2373 52.1167L 29.6441 52.1167ZM 35.0339 52.1167L 35.0339 20.65L 37.7289 20.65L 37.7289 52.1167L 35.0339 52.1167ZM 39.5254 52.1167L 39.5254 20.65L 43.1186 20.65L 43.1186 52.1167L 39.5254 52.1167ZM 44.9152 52.1167L 44.9152 20.65L 47.6102 20.65L 47.6102 52.1167L 44.9152 52.1167ZM 48.5085 18.6833L 44.017 18.6833L 38.6271 18.6833L 34.1356 18.6833L 28.7457 18.6833L 24.2542 18.6833L 18.8643 18.6833L 14.3729 18.6833L 8.98303 18.6833L 4.49146 18.6833L 1.79654 18.6833L 1.79654 15.7333L 51.2034 15.7333L 51.2034 18.6833L 48.5085 18.6833Z"/>
<path id="path1_stroke_2x" d="M 49.3565 13.7667L 49.1077 13.7914L 49.1301 14.0167L 49.3565 14.0167L 49.3565 13.7667ZM 42.5081 4.16169L 42.6407 3.94974L 42.6407 3.94974L 42.5081 4.16169ZM 10.4919 4.16169L 10.3593 3.94974L 10.3593 3.94974L 10.4919 4.16169ZM 3.64351 13.7667L 3.64351 14.0167L 3.86992 14.0167L 3.89229 13.7914L 3.64351 13.7667ZM 3.59319 20.65L 3.84319 20.65L 3.84319 20.4L 3.59319 20.4L 3.59319 20.65ZM 3.59319 52.1167L 3.59319 52.3667L 3.84319 52.3667L 3.84319 52.1167L 3.59319 52.1167ZM 49.4068 52.1167L 49.1568 52.1167L 49.1568 52.3667L 49.4068 52.3667L 49.4068 52.1167ZM 49.4068 20.65L 49.4068 20.4L 49.1568 20.4L 49.1568 20.65L 49.4068 20.65ZM 11.3834 5.86923L 11.516 6.08119L 11.516 6.08118L 11.3834 5.86923ZM 41.6166 5.86935L 41.484 6.0813L 41.484 6.0813L 41.6166 5.86935ZM 47.5413 13.7667L 47.5413 14.0167L 47.8255 14.0167L 47.7893 13.7349L 47.5413 13.7667ZM 5.45868 13.7667L 5.21072 13.7349L 5.17452 14.0167L 5.45868 14.0167L 5.45868 13.7667ZM 51.2035 54.0833L 51.4535 54.0833L 51.4535 53.8333L 51.2035 53.8333L 51.2035 54.0833ZM 51.2035 57.0333L 51.2035 57.2833L 51.4535 57.2833L 51.4535 57.0333L 51.2035 57.0333ZM 1.79654 57.0333L 1.54654 57.0333L 1.54654 57.2833L 1.79654 57.2833L 1.79654 57.0333ZM 1.79654 54.0833L 1.79654 53.8333L 1.54654 53.8333L 1.54654 54.0833L 1.79654 54.0833ZM 5.38984 52.1167L 5.13984 52.1167L 5.13984 52.3667L 5.38984 52.3667L 5.38984 52.1167ZM 5.38984 20.65L 5.38984 20.4L 5.13984 20.4L 5.13984 20.65L 5.38984 20.65ZM 8.08476 20.65L 8.33476 20.65L 8.33476 20.4L 8.08476 20.4L 8.08476 20.65ZM 8.08476 52.1167L 8.08476 52.3667L 8.33476 52.3667L 8.33476 52.1167L 8.08476 52.1167ZM 9.8813 52.1167L 9.6313 52.1167L 9.6313 52.3667L 9.8813 52.3667L 9.8813 52.1167ZM 9.8813 20.65L 9.8813 20.4L 9.6313 20.4L 9.6313 20.65L 9.8813 20.65ZM 13.4745 20.65L 13.7245 20.65L 13.7245 20.4L 13.4745 20.4L 13.4745 20.65ZM 13.4745 52.1167L 13.4745 52.3667L 13.7245 52.3667L 13.7245 52.1167L 13.4745 52.1167ZM 15.2711 52.1167L 15.0211 52.1167L 15.0211 52.3667L 15.2711 52.3667L 15.2711 52.1167ZM 15.2711 20.65L 15.2711 20.4L 15.0211 20.4L 15.0211 20.65L 15.2711 20.65ZM 17.9661 20.65L 18.2161 20.65L 18.2161 20.4L 17.9661 20.4L 17.9661 20.65ZM 17.9661 52.1167L 17.9661 52.3667L 18.2161 52.3667L 18.2161 52.1167L 17.9661 52.1167ZM 19.7627 52.1167L 19.5127 52.1167L 19.5127 52.3667L 19.7627 52.3667L 19.7627 52.1167ZM 19.7627 20.65L 19.7627 20.4L 19.5127 20.4L 19.5127 20.65L 19.7627 20.65ZM 23.3559 20.65L 23.6059 20.65L 23.6059 20.4L 23.3559 20.4L 23.3559 20.65ZM 23.3559 52.1167L 23.3559 52.3667L 23.6059 52.3667L 23.6059 52.1167L 23.3559 52.1167ZM 25.1525 52.1167L 24.9025 52.1167L 24.9025 52.3667L 25.1525 52.3667L 25.1525 52.1167ZM 25.1525 20.65L 25.1525 20.4L 24.9025 20.4L 24.9025 20.65L 25.1525 20.65ZM 27.8475 20.65L 28.0975 20.65L 28.0975 20.4L 27.8475 20.4L 27.8475 20.65ZM 27.8475 52.1167L 27.8475 52.3667L 28.0975 52.3667L 28.0975 52.1167L 27.8475 52.1167ZM 29.6441 52.1167L 29.3941 52.1167L 29.3941 52.3667L 29.6441 52.3667L 29.6441 52.1167ZM 29.6441 20.65L 29.6441 20.4L 29.3941 20.4L 29.3941 20.65L 29.6441 20.65ZM 33.2373 20.65L 33.4873 20.65L 33.4873 20.4L 33.2373 20.4L 33.2373 20.65ZM 33.2373 52.1167L 33.2373 52.3667L 33.4873 52.3667L 33.4873 52.1167L 33.2373 52.1167ZM 35.0339 52.1167L 34.7839 52.1167L 34.7839 52.3667L 35.0339 52.3667L 35.0339 52.1167ZM 35.0339 20.65L 35.0339 20.4L 34.7839 20.4L 34.7839 20.65L 35.0339 20.65ZM 37.7289 20.65L 37.9789 20.65L 37.9789 20.4L 37.7289 20.4L 37.7289 20.65ZM 37.7289 52.1167L 37.7289 52.3667L 37.9789 52.3667L 37.9789 52.1167L 37.7289 52.1167ZM 39.5254 52.1167L 39.2754 52.1167L 39.2754 52.3667L 39.5254 52.3667L 39.5254 52.1167ZM 39.5254 20.65L 39.5254 20.4L 39.2754 20.4L 39.2754 20.65L 39.5254 20.65ZM 43.1186 20.65L 43.3686 20.65L 43.3686 20.4L 43.1186 20.4L 43.1186 20.65ZM 43.1186 52.1167L 43.1186 52.3667L 43.3686 52.3667L 43.3686 52.1167L 43.1186 52.1167ZM 44.9152 52.1167L 44.6652 52.1167L 44.6652 52.3667L 44.9152 52.3667L 44.9152 52.1167ZM 44.9152 20.65L 44.9152 20.4L 44.6652 20.4L 44.6652 20.65L 44.9152 20.65ZM 47.6102 20.65L 47.8602 20.65L 47.8602 20.4L 47.6102 20.4L 47.6102 20.65ZM 47.6102 52.1167L 47.6102 52.3667L 47.8602 52.3667L 47.8602 52.1167L 47.6102 52.1167ZM 1.79654 18.6833L 1.54654 18.6833L 1.54654 18.9333L 1.79654 18.9333L 1.79654 18.6833ZM 1.79654 15.7333L 1.79654 15.4833L 1.54654 15.4833L 1.54654 15.7333L 1.79654 15.7333ZM 51.2034 15.7333L 51.4534 15.7333L 51.4534 15.4833L 51.2034 15.4833L 51.2034 15.7333ZM 51.2034 18.6833L 51.2034 18.9333L 51.4534 18.9333L 51.4534 18.6833L 51.2034 18.6833ZM 52.1017 20.9C 52.7568 20.9 53.25 20.326 53.25 19.6667L 52.75 19.6667C 52.75 20.0934 52.439 20.4 52.1017 20.4L 52.1017 20.9ZM 53.25 19.6667L 53.25 14.75L 52.75 14.75L 52.75 19.6667L 53.25 19.6667ZM 53.25 14.75C 53.25 14.0906 52.7566 13.5167 52.1017 13.5167L 52.1017 14.0167C 52.4389 14.0167 52.75 14.3232 52.75 14.75L 53.25 14.75ZM 52.1017 13.5167L 49.3565 13.5167L 49.3565 14.0167L 52.1017 14.0167L 52.1017 13.5167ZM 49.6053 13.742C 49.2312 9.9747 46.7711 6.53353 42.6407 3.94974L 42.3755 4.37364C 46.4171 6.90187 48.7533 10.222 49.1077 13.7914L 49.6053 13.742ZM 42.6407 3.94974C 38.3165 1.24827 32.5641 -0.247981 26.5 -0.25L 26.5 0.25C 32.5007 0.247981 38.1187 1.70749 42.3756 4.37364L 42.6407 3.94974ZM 26.5 -0.25C 20.4359 -0.247982 14.6834 1.24827 10.3593 3.94974L 10.6244 4.37364C 14.8811 1.70749 20.4993 0.247982 26.5 0.25L 26.5 -0.25ZM 10.3593 3.94974C 6.22892 6.53353 3.76868 9.97469 3.39473 13.742L 3.89229 13.7914C 4.24659 10.222 6.58289 6.90188 10.6245 4.37364L 10.3593 3.94974ZM 3.64351 13.5167L 0.898271 13.5167L 0.898271 14.0167L 3.64351 14.0167L 3.64351 13.5167ZM 0.898271 13.5167C 0.243244 13.5167 -0.25 14.0907 -0.25 14.75L 0.25 14.75C 0.25 14.3233 0.561021 14.0167 0.898271 14.0167L 0.898271 13.5167ZM -0.25 14.75L -0.25 19.6667L 0.25 19.6667L 0.25 14.75L -0.25 14.75ZM -0.25 19.6667C -0.25 20.3261 0.243386 20.9 0.898271 20.9L 0.898271 20.4C 0.56109 20.4 0.25 20.0935 0.25 19.6667L -0.25 19.6667ZM 0.898271 20.9L 3.59319 20.9L 3.59319 20.4L 0.898271 20.4L 0.898271 20.9ZM 3.34319 20.65L 3.34319 52.1167L 3.84319 52.1167L 3.84319 20.65L 3.34319 20.65ZM 3.59319 51.8667L 0.898271 51.8667L 0.898271 52.3667L 3.59319 52.3667L 3.59319 51.8667ZM 0.898271 51.8667C 0.243244 51.8667 -0.25 52.4407 -0.25 53.1L 0.25 53.1C 0.25 52.6733 0.561021 52.3667 0.898271 52.3667L 0.898271 51.8667ZM -0.25 53.1L -0.25 58.0167L 0.25 58.0167L 0.25 53.1L -0.25 53.1ZM -0.25 58.0167C -0.25 58.6761 0.243386 59.25 0.898271 59.25L 0.898271 58.75C 0.56109 58.75 0.25 58.4435 0.25 58.0167L -0.25 58.0167ZM 0.898271 59.25L 52.1017 59.25L 52.1017 58.75L 0.898271 58.75L 0.898271 59.25ZM 52.1017 59.25C 52.7568 59.25 53.25 58.676 53.25 58.0167L 52.75 58.0167C 52.75 58.4434 52.439 58.75 52.1017 58.75L 52.1017 59.25ZM 53.25 58.0167L 53.25 53.1L 52.75 53.1L 52.75 58.0167L 53.25 58.0167ZM 53.25 53.1C 53.25 52.4406 52.7566 51.8667 52.1017 51.8667L 52.1017 52.3667C 52.4389 52.3667 52.75 52.6732 52.75 53.1L 53.25 53.1ZM 52.1017 51.8667L 49.4068 51.8667L 49.4068 52.3667L 52.1017 52.3667L 52.1017 51.8667ZM 49.6568 52.1167L 49.6568 20.65L 49.1568 20.65L 49.1568 52.1167L 49.6568 52.1167ZM 49.4068 20.9L 52.1017 20.9L 52.1017 20.4L 49.4068 20.4L 49.4068 20.9ZM 11.516 6.08118C 15.492 3.59415 20.8122 2.21671 26.5 2.21671L 26.5 1.71671C 20.7379 1.71671 15.3214 3.11111 11.2508 5.65728L 11.516 6.08118ZM 26.5 2.21671C 32.1878 2.21671 37.508 3.59415 41.484 6.0813L 41.7492 5.6574C 37.6786 3.11111 32.2621 1.71671 26.5 1.71671L 26.5 2.21671ZM 41.484 6.0813C 44.9251 8.2336 46.9277 10.951 47.2934 13.7985L 47.7893 13.7349C 47.3982 10.6895 45.2682 7.85842 41.7492 5.65739L 41.484 6.0813ZM 47.5413 13.5167L 5.45868 13.5167L 5.45868 14.0167L 47.5413 14.0167L 47.5413 13.5167ZM 5.70665 13.7986C 6.07239 10.951 8.07491 8.23348 11.516 6.08119L 11.2508 5.65728C 7.73184 7.85831 5.60187 10.6895 5.21072 13.7349L 5.70665 13.7986ZM 50.9535 54.0833L 50.9535 57.0333L 51.4535 57.0333L 51.4535 54.0833L 50.9535 54.0833ZM 51.2035 56.7833L 1.79654 56.7833L 1.79654 57.2833L 51.2035 57.2833L 51.2035 56.7833ZM 2.04654 57.0333L 2.04654 54.0833L 1.54654 54.0833L 1.54654 57.0333L 2.04654 57.0333ZM 1.79654 54.3333L 4.49146 54.3333L 4.49146 53.8333L 1.79654 53.8333L 1.79654 54.3333ZM 4.49146 54.3333L 8.98303 54.3333L 8.98303 53.8333L 4.49146 53.8333L 4.49146 54.3333ZM 8.98303 54.3333L 14.3729 54.3333L 14.3729 53.8333L 8.98303 53.8333L 8.98303 54.3333ZM 14.3729 54.3333L 18.8644 54.3333L 18.8644 53.8333L 14.3729 53.8333L 14.3729 54.3333ZM 18.8644 54.3333L 24.2543 54.3333L 24.2543 53.8333L 18.8644 53.8333L 18.8644 54.3333ZM 24.2543 54.3333L 28.7458 54.3333L 28.7458 53.8333L 24.2543 53.8333L 24.2543 54.3333ZM 28.7458 54.3333L 34.1357 54.3333L 34.1357 53.8333L 28.7458 53.8333L 28.7458 54.3333ZM 34.1357 54.3333L 38.6271 54.3333L 38.6271 53.8333L 34.1357 53.8333L 34.1357 54.3333ZM 38.6271 54.3333L 44.017 54.3333L 44.017 53.8333L 38.6271 53.8333L 38.6271 54.3333ZM 44.017 54.3333L 48.5085 54.3333L 48.5085 53.8333L 44.017 53.8333L 44.017 54.3333ZM 48.5085 54.3333L 51.2035 54.3333L 51.2035 53.8333L 48.5085 53.8333L 48.5085 54.3333ZM 5.63984 52.1167L 5.63984 20.65L 5.13984 20.65L 5.13984 52.1167L 5.63984 52.1167ZM 5.38984 20.9L 8.08476 20.9L 8.08476 20.4L 5.38984 20.4L 5.38984 20.9ZM 7.83476 20.65L 7.83476 52.1167L 8.33476 52.1167L 8.33476 20.65L 7.83476 20.65ZM 8.08476 51.8667L 5.38984 51.8667L 5.38984 52.3667L 8.08476 52.3667L 8.08476 51.8667ZM 10.1313 52.1167L 10.1313 20.65L 9.6313 20.65L 9.6313 52.1167L 10.1313 52.1167ZM 9.8813 20.9L 13.4745 20.9L 13.4745 20.4L 9.8813 20.4L 9.8813 20.9ZM 13.2245 20.65L 13.2245 52.1167L 13.7245 52.1167L 13.7245 20.65L 13.2245 20.65ZM 13.4745 51.8667L 9.8813 51.8667L 9.8813 52.3667L 13.4745 52.3667L 13.4745 51.8667ZM 15.5211 52.1167L 15.5211 20.65L 15.0211 20.65L 15.0211 52.1167L 15.5211 52.1167ZM 15.2711 20.9L 17.9661 20.9L 17.9661 20.4L 15.2711 20.4L 15.2711 20.9ZM 17.7161 20.65L 17.7161 52.1167L 18.2161 52.1167L 18.2161 20.65L 17.7161 20.65ZM 17.9661 51.8667L 15.2711 51.8667L 15.2711 52.3667L 17.9661 52.3667L 17.9661 51.8667ZM 20.0127 52.1167L 20.0127 20.65L 19.5127 20.65L 19.5127 52.1167L 20.0127 52.1167ZM 19.7627 20.9L 23.3559 20.9L 23.3559 20.4L 19.7627 20.4L 19.7627 20.9ZM 23.1059 20.65L 23.1059 52.1167L 23.6059 52.1167L 23.6059 20.65L 23.1059 20.65ZM 23.3559 51.8667L 19.7627 51.8667L 19.7627 52.3667L 23.3559 52.3667L 23.3559 51.8667ZM 25.4025 52.1167L 25.4025 20.65L 24.9025 20.65L 24.9025 52.1167L 25.4025 52.1167ZM 25.1525 20.9L 27.8475 20.9L 27.8475 20.4L 25.1525 20.4L 25.1525 20.9ZM 27.5975 20.65L 27.5975 52.1167L 28.0975 52.1167L 28.0975 20.65L 27.5975 20.65ZM 27.8475 51.8667L 25.1525 51.8667L 25.1525 52.3667L 27.8475 52.3667L 27.8475 51.8667ZM 29.8941 52.1167L 29.8941 20.65L 29.3941 20.65L 29.3941 52.1167L 29.8941 52.1167ZM 29.6441 20.9L 33.2373 20.9L 33.2373 20.4L 29.6441 20.4L 29.6441 20.9ZM 32.9873 20.65L 32.9873 52.1167L 33.4873 52.1167L 33.4873 20.65L 32.9873 20.65ZM 33.2373 51.8667L 29.6441 51.8667L 29.6441 52.3667L 33.2373 52.3667L 33.2373 51.8667ZM 35.2839 52.1167L 35.2839 20.65L 34.7839 20.65L 34.7839 52.1167L 35.2839 52.1167ZM 35.0339 20.9L 37.7289 20.9L 37.7289 20.4L 35.0339 20.4L 35.0339 20.9ZM 37.4789 20.65L 37.4789 52.1167L 37.9789 52.1167L 37.9789 20.65L 37.4789 20.65ZM 37.7289 51.8667L 35.0339 51.8667L 35.0339 52.3667L 37.7289 52.3667L 37.7289 51.8667ZM 39.7754 52.1167L 39.7754 20.65L 39.2754 20.65L 39.2754 52.1167L 39.7754 52.1167ZM 39.5254 20.9L 43.1186 20.9L 43.1186 20.4L 39.5254 20.4L 39.5254 20.9ZM 42.8686 20.65L 42.8686 52.1167L 43.3686 52.1167L 43.3686 20.65L 42.8686 20.65ZM 43.1186 51.8667L 39.5254 51.8667L 39.5254 52.3667L 43.1186 52.3667L 43.1186 51.8667ZM 45.1652 52.1167L 45.1652 20.65L 44.6652 20.65L 44.6652 52.1167L 45.1652 52.1167ZM 44.9152 20.9L 47.6102 20.9L 47.6102 20.4L 44.9152 20.4L 44.9152 20.9ZM 47.3602 20.65L 47.3602 52.1167L 47.8602 52.1167L 47.8602 20.65L 47.3602 20.65ZM 47.6102 51.8667L 44.9152 51.8667L 44.9152 52.3667L 47.6102 52.3667L 47.6102 51.8667ZM 48.5085 18.4333L 44.017 18.4333L 44.017 18.9333L 48.5085 18.9333L 48.5085 18.4333ZM 44.017 18.4333L 38.6271 18.4333L 38.6271 18.9333L 44.017 18.9333L 44.017 18.4333ZM 38.6271 18.4333L 34.1356 18.4333L 34.1356 18.9333L 38.6271 18.9333L 38.6271 18.4333ZM 34.1356 18.4333L 28.7457 18.4333L 28.7457 18.9333L 34.1356 18.9333L 34.1356 18.4333ZM 28.7457 18.4333L 24.2542 18.4333L 24.2542 18.9333L 28.7457 18.9333L 28.7457 18.4333ZM 24.2542 18.4333L 18.8643 18.4333L 18.8643 18.9333L 24.2542 18.9333L 24.2542 18.4333ZM 18.8643 18.4333L 14.3729 18.4333L 14.3729 18.9333L 18.8643 18.9333L 18.8643 18.4333ZM 14.3729 18.4333L 8.98303 18.4333L 8.98303 18.9333L 14.3729 18.9333L 14.3729 18.4333ZM 8.98303 18.4333L 4.49146 18.4333L 4.49146 18.9333L 8.98303 18.9333L 8.98303 18.4333ZM 4.49146 18.4333L 1.79654 18.4333L 1.79654 18.9333L 4.49146 18.9333L 4.49146 18.4333ZM 2.04654 18.6833L 2.04654 15.7333L 1.54654 15.7333L 1.54654 18.6833L 2.04654 18.6833ZM 1.79654 15.9833L 51.2034 15.9833L 51.2034 15.4833L 1.79654 15.4833L 1.79654 15.9833ZM 50.9534 15.7333L 50.9534 18.6833L 51.4534 18.6833L 51.4534 15.7333L 50.9534 15.7333ZM 51.2034 18.4333L 48.5085 18.4333L 48.5085 18.9333L 51.2034 18.9333L 51.2034 18.4333Z"/>
</defs>
</svg>
