<svg width="53" height="35" viewBox="0 0 53 35" version="1.1" xmlns="http://www.w3.org/2000/svg" xmlns:xlink="http://www.w3.org/1999/xlink" xmlns:figma="http://www.figma.com/figma/ns">
<title>Vector</title>
<desc>Created using Figma</desc>
<g id="Canvas" transform="translate(35 -890)" figma:type="canvas">
<g id="Vector" figma:type="vector">
<use xlink:href="#path0_fill" transform="translate(-35 890)" fill="#6FCF97"/>
<mask id="mask0_outline_ins">
<use xlink:href="#path0_fill" fill="white" transform="translate(-35 890)"/>
</mask>
<g mask="url(#mask0_outline_ins)">
<use xlink:href="#path1_stroke_2x" transform="translate(-35 890)" fill="#2C2424"/>
</g>
</g>
</g>
<defs>
<path id="path0_fill" d="M 0 -3.08045e-07L 0 35L 53 35L 53 -3.08045e-07L 0 -3.08045e-07ZM 48.6729 2.3693L 26.5008 21.4165L 4.32541 2.3693L 48.6729 2.3693ZM 2.30022 32.629L 2.30022 3.71459L 26.5008 24.5005L 50.6998 3.71459L 50.6998 32.6307L 2.30022 32.629Z"/>
<path id="path1_stroke_2x" d="M 0 -3.08045e-07L 0 -0.5L -0.5 -0.5L -0.5 -3.08045e-07L 0 -3.08045e-07ZM 0 35L -0.5 35L -0.5 35.5L 0 35.5L 0 35ZM 53 35L 53 35.5L 53.5 35.5L 53.5 35L 53 35ZM 53 -3.08045e-07L 53.5 -3.08045e-07L 53.5 -0.5L 53 -0.5L 53 -3.08045e-07ZM 48.6729 2.3693L 48.9987 2.74857L 50.0223 1.8693L 48.6729 1.8693L 48.6729 2.3693ZM 26.5008 21.4165L 26.175 21.7958L 26.5009 22.0756L 26.8266 21.7957L 26.5008 21.4165ZM 4.32541 2.3693L 4.32541 1.8693L 2.97592 1.8693L 3.99962 2.74859L 4.32541 2.3693ZM 2.30022 32.629L 1.80022 32.629L 1.80022 33.129L 2.3002 33.129L 2.30022 32.629ZM 2.30022 3.71459L 2.626 3.3353L 1.80022 2.62603L 1.80022 3.71459L 2.30022 3.71459ZM 26.5008 24.5005L 26.1751 24.8798L 26.5008 25.1596L 26.8266 24.8798L 26.5008 24.5005ZM 50.6998 3.71459L 51.1998 3.71459L 51.1998 2.62598L 50.374 3.33531L 50.6998 3.71459ZM 50.6998 32.6307L 50.6998 33.1307L 51.1998 33.1307L 51.1998 32.6307L 50.6998 32.6307ZM -0.5 -3.08045e-07L -0.5 35L 0.5 35L 0.5 -3.08045e-07L -0.5 -3.08045e-07ZM 0 35.5L 53 35.5L 53 34.5L 0 34.5L 0 35.5ZM 53.5 35L 53.5 -3.08045e-07L 52.5 -3.08045e-07L 52.5 35L 53.5 35ZM 53 -0.5L 0 -0.5L 0 0.5L 53 0.5L 53 -0.5ZM 48.3471 1.99003L 26.175 21.0372L 26.8266 21.7957L 48.9987 2.74857L 48.3471 1.99003ZM 26.8266 21.0372L 4.65119 1.99001L 3.99962 2.74859L 26.175 21.7958L 26.8266 21.0372ZM 4.32541 2.8693L 48.6729 2.8693L 48.6729 1.8693L 4.32541 1.8693L 4.32541 2.8693ZM 2.80022 32.629L 2.80022 3.71459L 1.80022 3.71459L 1.80022 32.629L 2.80022 32.629ZM 1.97444 4.09389L 26.1751 24.8798L 26.8266 24.1212L 2.626 3.3353L 1.97444 4.09389ZM 26.8266 24.8798L 51.0256 4.09388L 50.374 3.33531L 26.175 24.1212L 26.8266 24.8798ZM 50.1998 3.71459L 50.1998 32.6307L 51.1998 32.6307L 51.1998 3.71459L 50.1998 3.71459ZM 50.6998 32.1307L 2.30023 32.129L 2.3002 33.129L 50.6998 33.1307L 50.6998 32.1307Z"/>
</defs>
</svg>
