<svg width="238" height="262" viewBox="0 0 238 262" version="1.1" xmlns="http://www.w3.org/2000/svg" xmlns:xlink="http://www.w3.org/1999/xlink" xmlns:figma="http://www.figma.com/figma/ns">
<title>Vector</title>
<desc>Created using Figma</desc>
<g id="Canvas" transform="translate(-145 209)" figma:type="canvas">
<g id="Vector" figma:type="vector">
<use xlink:href="#path0_fill" transform="translate(145 -209)" fill="#6FCF97"/>
<use xlink:href="#path1_fill" transform="translate(145 -209)" fill="#6FCF97"/>
</g>
</g>
<defs>
<path id="path0_fill" d="M 124.934 259.879L 124.107 261.13L 124.932 261.676L 125.759 261.132L 124.934 259.879ZM 1.5 2.87902L 2.35951 1.64969L 0 0L 0 2.87902L 1.5 2.87902ZM 124.934 9.46876L 125.827 8.26317L 124.934 7.60246L 124.042 8.26317L 124.934 9.46876ZM 236.5 2.87902L 238 2.87902L 238 0.38905L 235.799 1.55299L 236.5 2.87902ZM 125.761 258.628C 121.335 255.711 116.017 253.504 110.255 251.434C 104.499 249.367 98.2148 247.391 91.6666 244.867C 78.5531 239.815 64.4993 232.673 51.4211 218.216C 25.2561 189.366 3 131.29 3 2.87902L 0 2.87902C 0 131.468 22.2515 190.518 49.1989 220.231C 62.6768 235.056 77.3305 242.554 90.5877 247.666C 97.2249 250.223 103.542 252.21 109.241 254.258C 114.936 256.302 119.928 258.36 124.107 261.13L 125.761 258.628ZM 0.640494 4.10835C 54.6733 41.8863 107.606 24.1634 125.827 10.6744L 124.042 8.26317C 106.657 21.1331 55.1448 38.5554 2.35951 1.64969L 0.640494 4.10835ZM 124.042 10.6744C 142.443 24.2968 187.009 30.7455 237.201 4.20505L 235.799 1.55299C 186.294 27.7304 143.031 20.9997 125.827 8.26317L 124.042 10.6744ZM 235 2.87902C 235 131.349 217.178 188.496 194.674 216.87C 183.45 231.066 171.076 238.063 158.803 243.287C 146.545 248.511 134.403 251.878 124.11 258.626L 125.759 261.132C 135.642 254.61 147.534 251.343 159.978 246.047C 172.407 240.752 185.402 233.345 197.025 218.734C 220.216 189.492 238 131.409 238 2.87902L 235 2.87902Z"/>
<path id="path1_fill" d="M 103.579 70.095C 107.035 70.095 110.107 70.831 112.795 72.303C 115.547 73.711 117.691 75.727 119.227 78.351C 120.763 80.975 121.531 83.983 121.531 87.375C 121.531 90.703 120.987 93.711 119.899 96.399C 118.875 99.087 116.955 102.607 114.139 106.959L 100.315 129.327L 95.9949 126.639L 112.411 101.103C 109.467 103.151 106.075 104.175 102.235 104.175C 99.0989 104.175 96.2829 103.503 93.7869 102.159C 91.2909 100.751 89.3069 98.767 87.8349 96.207C 86.4269 93.647 85.7229 90.735 85.7229 87.471C 85.7229 84.079 86.4589 81.071 87.9309 78.447C 89.4669 75.823 91.5789 73.775 94.2669 72.303C 97.0189 70.831 100.123 70.095 103.579 70.095ZM 103.195 100.335C 105.499 100.335 107.643 99.791 109.627 98.703C 111.675 97.615 113.307 96.079 114.523 94.095C 115.739 92.047 116.347 89.647 116.347 86.895C 116.347 83.119 115.195 80.047 112.891 77.679C 110.651 75.247 107.547 74.031 103.579 74.031C 99.6109 74.031 96.4429 75.247 94.0749 77.679C 91.7709 80.111 90.6189 83.311 90.6189 87.279C 90.6189 91.247 91.7389 94.415 93.9789 96.783C 96.2189 99.151 99.2909 100.335 103.195 100.335ZM 145.766 70.095C 149.222 70.095 152.294 70.831 154.982 72.303C 157.734 73.711 159.878 75.727 161.414 78.351C 162.95 80.975 163.718 83.983 163.718 87.375C 163.718 90.703 163.174 93.711 162.086 96.399C 161.062 99.087 159.142 102.607 156.326 106.959L 142.502 129.327L 138.182 126.639L 154.598 101.103C 151.654 103.151 148.262 104.175 144.422 104.175C 141.286 104.175 138.47 103.503 135.974 102.159C 133.478 100.751 131.494 98.767 130.022 96.207C 128.614 93.647 127.91 90.735 127.91 87.471C 127.91 84.079 128.646 81.071 130.118 78.447C 131.654 75.823 133.766 73.775 136.454 72.303C 139.206 70.831 142.31 70.095 145.766 70.095ZM 145.382 100.335C 147.686 100.335 149.83 99.791 151.814 98.703C 153.862 97.615 155.494 96.079 156.71 94.095C 157.926 92.047 158.534 89.647 158.534 86.895C 158.534 83.119 157.382 80.047 155.078 77.679C 152.838 75.247 149.734 74.031 145.766 74.031C 141.798 74.031 138.63 75.247 136.262 77.679C 133.958 80.111 132.806 83.311 132.806 87.279C 132.806 91.247 133.926 94.415 136.166 96.783C 138.406 99.151 141.478 100.335 145.382 100.335ZM 83.1465 172.945C 80.0198 172.945 77.4515 173.972 75.4415 176.027C 73.4315 178.082 72.4265 180.695 72.4265 183.866C 72.4265 187.171 73.4092 189.874 75.3745 191.973C 77.3398 194.028 79.8858 195.055 83.0125 195.055C 85.1118 195.055 86.9208 194.675 88.4395 193.916C 89.9582 193.157 91.4768 191.995 92.9955 190.432L 94.4695 192.643C 91.4768 196.127 87.5685 197.869 82.7445 197.869C 80.0645 197.869 77.6525 197.266 75.5085 196.06C 73.4092 194.854 71.7565 193.201 70.5505 191.102C 69.3445 188.958 68.7415 186.546 68.7415 183.866C 68.7415 181.231 69.3222 178.863 70.4835 176.764C 71.6448 174.665 73.2528 173.034 75.3075 171.873C 77.4068 170.712 79.7742 170.131 82.4095 170.131C 84.3748 170.131 86.1392 170.511 87.7025 171.27C 89.3105 172.029 90.5165 173.034 91.3205 174.285L 91.3205 170.801L 94.4695 170.801L 94.4695 179.444L 91.6555 179.444C 91.2982 177.479 90.3378 175.915 88.7745 174.754C 87.2558 173.548 85.3798 172.945 83.1465 172.945ZM 100.015 197.199L 100.015 194.586L 104.906 194.586L 104.906 161.421L 100.216 161.421L 100.216 158.808L 108.524 158.808L 108.524 194.586L 113.08 194.586L 113.08 197.199L 100.015 197.199ZM 147.461 194.586L 147.461 197.199L 139.153 197.199L 139.019 193.983C 135.713 196.574 132.274 197.869 128.701 197.869C 125.753 197.869 123.609 197.065 122.269 195.457C 120.929 193.804 120.259 191.839 120.259 189.561L 120.259 173.481L 115.502 173.481L 115.502 170.868L 123.877 170.868L 123.877 189.293C 123.877 190.99 124.323 192.375 125.217 193.447C 126.155 194.474 127.539 194.988 129.371 194.988C 131.157 194.988 132.81 194.675 134.329 194.05C 135.892 193.425 137.433 192.487 138.952 191.236L 138.952 173.481L 134.128 173.481L 134.128 170.868L 142.57 170.868L 142.57 194.586L 147.461 194.586ZM 168.154 170.198C 172.04 170.198 175.189 171.404 177.601 173.816C 180.013 176.183 181.219 179.466 181.219 183.665C 181.219 186.568 180.616 189.092 179.41 191.236C 178.204 193.38 176.552 195.033 174.452 196.194C 172.353 197.311 170.008 197.869 167.417 197.869C 165.765 197.869 164.179 197.601 162.66 197.065C 161.186 196.484 159.869 195.658 158.707 194.586L 158.707 197.199L 150.332 197.199L 150.332 194.586L 155.089 194.586L 155.089 161.421L 150.533 161.421L 150.533 158.808L 158.707 158.808L 158.707 173.481C 160.092 172.409 161.611 171.605 163.263 171.069C 164.916 170.488 166.546 170.198 168.154 170.198ZM 166.881 195.189C 170.053 195.189 172.599 194.206 174.519 192.241C 176.485 190.276 177.467 187.551 177.467 184.067C 177.467 180.628 176.529 177.925 174.653 175.96C 172.777 173.95 170.321 172.945 167.283 172.945C 165.899 172.945 164.447 173.235 162.928 173.816C 161.454 174.397 160.047 175.201 158.707 176.228L 158.707 191.906C 159.913 192.933 161.231 193.737 162.66 194.318C 164.09 194.899 165.497 195.189 166.881 195.189Z"/>
</defs>
</svg>
